<svg height="512" viewBox="0 0 60 54" width="512" xmlns="http://www.w3.org/2000/svg"><g id="Page-1" fill="none" fill-rule="evenodd"><g id="003---Camera" fill="rgb(0,0,0)" fill-rule="nonzero"><path id="Shape" d="m57 8h-1v-2c0-1.1045695-.8954305-2-2-2h-6c-1.1045695 0-2 .8954305-2 2v2h-2.307l-2.27-6.053c-.4422917-1.16847153-1.5596277-1.94292973-2.809-1.947h-13.228c-1.2493723.00407027-2.3667083.77852847-2.809 1.947l-2.27 6.053h-2.307v-2c0-1.1045695-.8954305-2-2-2h-10c-1.1045695 0-2 .8954305-2 2v2h-1c-1.65685425 0-3 1.34314575-3 3v40c0 1.6568542 1.34314575 3 3 3h54c1.6568542 0 3-1.3431458 3-3v-40c0-1.65685425-1.3431458-3-3-3zm-9-2h6v2h-6zm-23.551-3.351c.1480656-.38928892.5205072-.64725543.937-.649h13.228c.4167554.00015649.7897189.25876043.936.649l2.007 5.351h-19.114zm-18.449 3.351h10v2h-10zm51 46h-16.566c7.9078381-3.9173421 12.0774214-12.7639195 10.0657905-21.3565218s-9.6748558-14.668978-18.4997905-14.668978-16.4881596 6.0763757-18.4997905 14.668978 2.1579524 17.4391797 10.0657905 21.3565218h-20.566c-.55228475 0-1-.4477153-1-1v-31h15c.5522847 0 1-.4477153 1-1s-.4477153-1-1-1h-15v-7c0-.5522847.44771525-1 1-1h54c.5522847 0 1 .4477153 1 1v7h-11c-.5522847 0-1 .4477153-1 1s.4477153 1 1 1h11v31c0 .5522847-.4477153 1-1 1zm-25 0c-9.3888407 0-17-7.6111593-17-17s7.6111593-17 17-17 17 7.6111593 17 17c-.010471 9.3845001-7.6154999 16.989529-17 17z"/><path id="Shape" d="m32 20c-.5522847 0-1 .4477153-1 1s.4477153 1 1 1c7.1797017 0 13 5.8202983 13 13s-5.8202983 13-13 13-13-5.8202983-13-13c0-.5522847-.4477153-1-1-1s-1 .4477153-1 1c0 8.2842712 6.7157288 15 15 15s15-6.7157288 15-15-6.7157288-15-15-15z"/><path id="Shape" d="m32 40c2.7614237-.0000001 4.9999999-2.2385763 4.9999999-5s-2.2385762-4.9999999-4.9999999-5c-.5522847 0-1 .4477153-1 1s.4477153 1 1 1c1.6568542 0 3 1.3431458 3 3s-1.3431458 3-3 3-3-1.3431458-3-3c0-.5522847-.4477153-1-1-1s-1 .4477153-1 1c.0033061 2.7600532 2.2399468 4.9966939 5 5z"/><path id="Shape" d="m21 13h-16c-.55228475 0-1 .4477153-1 1s.44771525 1 1 1h16c.5522847 0 1-.4477153 1-1s-.4477153-1-1-1z"/><path id="Shape" d="m53 15h2c.5522847 0 1-.4477153 1-1s-.4477153-1-1-1h-2c-.5522847 0-1 .4477153-1 1s.4477153 1 1 1z"/><path id="Shape" d="m37 4h-10c-.5522847 0-1 .44771525-1 1s.4477153 1 1 1h10c.5522847 0 1-.44771525 1-1s-.4477153-1-1-1z"/></g></g></svg>